
<svg aria-hidden="true" style="position: absolute; width: 0; height: 0; overflow: hidden;" version="1.1" xmlns="http://www.w3.org/2000/svg" xmlns:xlink="http://www.w3.org/1999/xlink">
<defs>

<symbol  viewBox="0 0 20 10" id="eye-closed">
<path d="M19 1C16.6 3.667 13.6 5 10 5C6.4 5 3.4 3.667 1 1M1 7L3.5 3.2M18.9998 6.976L16.5078 3.2M7 9L7.5 5M13 9L12.5 5" stroke-linecap="round" stroke-linejoin="round"/>
</symbol>

<symbol  viewBox="0 0 20 14" id="eye-open">
<path d="M8 7C8 7.53043 8.21071 8.03914 8.58579 8.41421C8.96086 8.78929 9.46957 9 10 9C10.5304 9 11.0391 8.78929 11.4142 8.41421C11.7893 8.03914 12 7.53043 12 7C12 6.46957 11.7893 5.96086 11.4142 5.58579C11.0391 5.21071 10.5304 5 10 5C9.46957 5 8.96086 5.21071 8.58579 5.58579C8.21071 5.96086 8 6.46957 8 7Z"  stroke-linecap="round" stroke-linejoin="round"/>
<path d="M19 7C16.6 11 13.6 13 10 13C6.4 13 3.4 11 1 7C3.4 3 6.4 1 10 1C13.6 1 16.6 3 19 7Z"  stroke-linecap="round" stroke-linejoin="round"/>
</symbol>


<symbol viewBox="0 0 14 8" id='tick'>
<path d="M0.895432 2.52777L2.29769 6.49518C2.50592 7.08431 3.17579 7.31426 3.68801 6.9564C6.21735 5.18927 12.5208 0.6395 12.5208 0.6395" stroke="white" stroke-linecap="round"/>
</symbol>

<symbol id="apple-logo" viewBox="0 0 16 18">
<path d="M13.0502 17.28C12.0702 18.23 11.0002 18.08 9.97016 17.63C8.88016 17.17 7.88016 17.15 6.73016 17.63C5.29016 18.25 4.53016 18.07 3.67016 17.28C-1.20984 12.25 -0.489836 4.59 5.05016 4.31C6.40016 4.38 7.34016 5.05 8.13016 5.11C9.31016 4.87 10.4402 4.18 11.7002 4.27C13.2102 4.39 14.3502 4.99 15.1002 6.07C11.9802 7.94 12.7202 12.05 15.5802 13.2C15.0102 14.7 14.2702 16.19 13.0402 17.29L13.0502 17.28ZM8.03016 4.25C7.88016 2.02 9.69016 0.18 11.7702 0C12.0602 2.58 9.43016 4.5 8.03016 4.25Z"/>
</symbol>


<symbol id="google-logo" viewBox="-3 0 262 262">
<path d="M255.878 133.451c0-10.734-.871-18.567-2.756-26.69H130.55v48.448h71.947c-1.45 12.04-9.283 30.172-26.69 42.356l-.244 1.622 38.755 30.023 2.685.268c24.659-22.774 38.875-56.282 38.875-96.027" fill="#4285F4"/><path d="M130.55 261.1c35.248 0 64.839-11.605 86.453-31.622l-41.196-31.913c-11.024 7.688-25.82 13.055-45.257 13.055-34.523 0-63.824-22.773-74.269-54.25l-1.531.13-40.298 31.187-.527 1.465C35.393 231.798 79.49 261.1 130.55 261.1" fill="#34A853"/><path d="M56.281 156.37c-2.756-8.123-4.351-16.827-4.351-25.82 0-8.994 1.595-17.697 4.206-25.82l-.073-1.73L15.26 71.312l-1.335.635C5.077 89.644 0 109.517 0 130.55s5.077 40.905 13.925 58.602l42.356-32.782" fill="#FBBC05"/><path d="M130.55 50.479c24.514 0 41.05 10.589 50.479 19.438l36.844-35.974C195.245 12.91 165.798 0 130.55 0 79.49 0 35.393 29.301 13.925 71.947l42.211 32.783c10.59-31.477 39.891-54.251 74.414-54.251" fill="#EB4335"/>
</symbol>

</defs>
</svg>