
<svg aria-hidden="true" style="position: absolute; width: 0; height: 0; overflow: hidden;" version="1.1" xmlns="http://www.w3.org/2000/svg" xmlns:xlink="http://www.w3.org/1999/xlink">
<defs>

<symbol  id="eye-off"  viewBox="0 -960 960 960"  >
<path d="m644-428-58-58q9-47-27-88t-93-32l-58-58q17-8 34.5-12t37.5-4q75 0 127.5 52.5T660-500q0 20-4 37.5T644-428Zm128 126-58-56q38-29 67.5-63.5T832-500q-50-101-143.5-160.5T480-720q-29 0-57 4t-55 12l-62-62q41-17 84-25.5t90-8.5q151 0 269 83.5T920-500q-23 59-60.5 109.5T772-302Zm20 246L624-222q-35 11-70.5 16.5T480-200q-151 0-269-83.5T40-500q21-53 53-98.5t73-81.5L56-792l56-56 736 736-56 56ZM222-624q-29 26-53 57t-41 67q50 101 143.5 160.5T480-280q20 0 39-2.5t39-5.5l-36-38q-11 3-21 4.5t-21 1.5q-75 0-127.5-52.5T300-500q0-11 1.5-21t4.5-21l-84-82Zm319 93Zm-151 75Z"/>
</symbol>

<symbol viewBox="0 -960 960 960" id="eye">
<path d="M480-320q75 0 127.5-52.5T660-500q0-75-52.5-127.5T480-680q-75 0-127.5 52.5T300-500q0 75 52.5 127.5T480-320Zm0-72q-45 0-76.5-31.5T372-500q0-45 31.5-76.5T480-608q45 0 76.5 31.5T588-500q0 45-31.5 76.5T480-392Zm0 192q-146 0-266-81.5T40-500q54-137 174-218.5T480-800q146 0 266 81.5T920-500q-54 137-174 218.5T480-200Zm0-300Zm0 220q113 0 207.5-59.5T832-500q-50-101-144.5-160.5T480-720q-113 0-207.5 59.5T128-500q50 101 144.5 160.5T480-280Z"/>
</symbol>

<symbol id="error" viewBox="0 0 20 20" >
<path d="M10 15C10.2833 15 10.5208 14.9042 10.7125 14.7125C10.9042 14.5208 11 14.2833 11 14C11 13.7167 10.9042 13.4792 10.7125 13.2875C10.5208 13.0958 10.2833 13 10 13C9.71667 13 9.47917 13.0958 9.2875 13.2875C9.09583 13.4792 9 13.7167 9 14C9 14.2833 9.09583 14.5208 9.2875 14.7125C9.47917 14.9042 9.71667 15 10 15ZM9 11H11V5H9V11ZM10 20C8.61667 20 7.31667 19.7375 6.1 19.2125C4.88333 18.6875 3.825 17.975 2.925 17.075C2.025 16.175 1.3125 15.1167 0.7875 13.9C0.2625 12.6833 0 11.3833 0 10C0 8.61667 0.2625 7.31667 0.7875 6.1C1.3125 4.88333 2.025 3.825 2.925 2.925C3.825 2.025 4.88333 1.3125 6.1 0.7875C7.31667 0.2625 8.61667 0 10 0C11.3833 0 12.6833 0.2625 13.9 0.7875C15.1167 1.3125 16.175 2.025 17.075 2.925C17.975 3.825 18.6875 4.88333 19.2125 6.1C19.7375 7.31667 20 8.61667 20 10C20 11.3833 19.7375 12.6833 19.2125 13.9C18.6875 15.1167 17.975 16.175 17.075 17.075C16.175 17.975 15.1167 18.6875 13.9 19.2125C12.6833 19.7375 11.3833 20 10 20Z" /></symbol>


<symbol id="arrow-top-right"  viewBox="0 0 25 24">
<path d="M5.42888 17.6572C5.03836 18.0477 5.03836 18.6808 5.42888 19.0714C5.8194 19.4619 6.45257 19.4619 6.84309 19.0714L5.42888 17.6572ZM19.8639 5.63634C19.8639 5.08405 19.4162 4.63634 18.8639 4.63634L9.86391 4.63634C9.31162 4.63634 8.86391 5.08405 8.86391 5.63634C8.86391 6.18862 9.31162 6.63634 9.86391 6.63634L17.8639 6.63634L17.8639 14.6363C17.8639 15.1886 18.3116 15.6363 18.8639 15.6363C19.4162 15.6363 19.8639 15.1886 19.8639 14.6363L19.8639 5.63634ZM6.84309 19.0714L19.571 6.34344L18.1568 4.92923L5.42888 17.6572L6.84309 19.0714Z" />
</symbol>

<symbol id = "forgot-password" viewBox="0 0 24 24" fill="none">
  <path d="M20.8 12.9246L5.4 19.4246C5.06667 19.558 4.75 19.5286 4.45 19.3366C4.15 19.1446 4 18.8656 4 18.4996V5.49965C4 5.13298 4.15 4.85398 4.45 4.66265C4.75 4.47131 5.06667 4.44198 5.4 4.57465L20.8 11.0746C21.2167 11.258 21.425 11.5663 21.425 11.9996C21.425 12.433 21.2167 12.7413 20.8 12.9246ZM6 16.9996L17.85 11.9996L6 6.99965V10.4996L12 11.9996L6 13.4996V16.9996Z" fill="#001D31" />

</symbol>


</defs>
</svg>